HIERARCHY
ROOT joint_Root
{
	OFFSET 0.0 0.0 0.0
	CHANNELS 6 Xposition Yposition Zposition Zrotation Xrotation Yrotation 
	JOINT Hips
	{
		OFFSET -17.1583 93.1646 452.98
		CHANNELS 6 Xposition Yposition Zposition Zrotation Xrotation Yrotation 
		JOINT Spine
		{
			OFFSET 15.7357 0.0 0.0
			CHANNELS 6 Xposition Yposition Zposition Zrotation Xrotation Yrotation 
			JOINT Chest
			{
				OFFSET 8.98455 -0.406207 0.0
				CHANNELS 6 Xposition Yposition Zposition Zrotation Xrotation Yrotation 
				JOINT Neck
				{
					OFFSET 16.3773 0.0 0.0
					CHANNELS 6 Xposition Yposition Zposition Zrotation Xrotation Yrotation 
					JOINT Head
					{
						OFFSET 6.45672 0.0 0.0
						CHANNELS 6 Xposition Yposition Zposition Zrotation Xrotation Yrotation 
						End Site
						{
							OFFSET 0.0 0.0 0.0
						}
					}
				}
				JOINT Shoulder_L
				{
					OFFSET 12.9942 -0.242716 4.98039
					CHANNELS 6 Xposition Yposition Zposition Zrotation Xrotation Yrotation 
					JOINT UpperArm_L
					{
						OFFSET 5.34809 0.0 0.0
						CHANNELS 6 Xposition Yposition Zposition Zrotation Xrotation Yrotation 
						JOINT LowerArm_L
						{
							OFFSET 24.3286 1.87007e-05 0.0
							CHANNELS 6 Xposition Yposition Zposition Zrotation Xrotation Yrotation 
							JOINT Hand_L
							{
								OFFSET 22.2916 0.0 0.0
								CHANNELS 6 Xposition Yposition Zposition Zrotation Xrotation Yrotation 
								End Site
								{
									OFFSET 0.0 0.0 0.0
								}
							}
						}
					}
				}
				JOINT Shoulder_R
				{
					OFFSET 12.9945 -0.242716 -4.98039
					CHANNELS 6 Xposition Yposition Zposition Zrotation Xrotation Yrotation 
					JOINT UpperArm_R
					{
						OFFSET -5.34813 0.0 0.0
						CHANNELS 6 Xposition Yposition Zposition Zrotation Xrotation Yrotation 
						JOINT LowerArm_R
						{
							OFFSET -24.3289 0.000322201 0.0
							CHANNELS 6 Xposition Yposition Zposition Zrotation Xrotation Yrotation 
							JOINT Hand_R
							{
								OFFSET -22.2915 -0.000108084 0.0
								CHANNELS 6 Xposition Yposition Zposition Zrotation Xrotation Yrotation 
								End Site
								{
									OFFSET 0.0 0.0 0.0
								}
							}
						}
					}
				}
			}
		}
		JOINT UpperLeg_L
		{
			OFFSET -2.19248 -6.46944 0.0
			CHANNELS 6 Xposition Yposition Zposition Zrotation Xrotation Yrotation 
			JOINT LowerLeg_L
			{
				OFFSET 39.0811 0.0 -1.23785e-05
				CHANNELS 6 Xposition Yposition Zposition Zrotation Xrotation Yrotation 
				JOINT Foot_L
				{
					OFFSET 40.9854 0.0 -1.26872e-05
					CHANNELS 6 Xposition Yposition Zposition Zrotation Xrotation Yrotation 
					JOINT Toes_L
					{
						OFFSET 11.7543 0.0 0.0
						CHANNELS 6 Xposition Yposition Zposition Zrotation Xrotation Yrotation 
						End Site
						{
							OFFSET 0.0 0.0 0.0
						}
					}
				}
			}
		}
		JOINT UpperLeg_R
		{
			OFFSET -2.19251 6.46944 0.0
			CHANNELS 6 Xposition Yposition Zposition Zrotation Xrotation Yrotation 
			JOINT LowerLeg_R
			{
				OFFSET -39.0811 -0.00228153 -0.0401928
				CHANNELS 6 Xposition Yposition Zposition Zrotation Xrotation Yrotation 
				JOINT Foot_R
				{
					OFFSET -40.9854 0.0 0.0
					CHANNELS 6 Xposition Yposition Zposition Zrotation Xrotation Yrotation 
					JOINT Toes_R
					{
						OFFSET -11.7543 0.0 0.0
						CHANNELS 6 Xposition Yposition Zposition Zrotation Xrotation Yrotation 
						End Site
						{
							OFFSET 0.0 0.0 0.0
						}
					}
				}
			}
		}
	}
}
MOTION
Frames:	8
Frame Time:	0.0333333
0.000000 0.000000 0.000000 0.000000 0.000000 -0.000000 175.760000 91.822600 200.948000 97.349500 -48.247800 2.083290 15.735700 0.000005 -0.000001 118.360000 87.471300 -119.707000 8.984550 -0.406207 -0.000000 -3.285890 2.531010 -2.622280 16.377300 -0.000001 -0.000001 5.516420 -5.952120 -2.629390 6.456720 -0.000001 -0.000000 7.497230 -12.206900 -3.840780 12.994200 -0.242716 4.980390 -92.444100 6.060710 -67.988000 5.348090 -0.000007 -0.000001 -67.786500 -8.651470 17.847500 24.328600 0.000019 0.000005 7.164970 33.704500 -12.764100 22.291600 -0.000001 0.000005 53.141500 4.572960 15.376800 12.994500 -0.242716 -4.980390 89.037300 2.854110 -71.352700 -5.348130 -0.000001 -0.000004 -73.504400 9.813960 -9.295280 -24.328900 0.000322 -0.000009 0.796544 1.011740 -38.255500 -22.291500 -0.000108 -0.000004 38.522800 5.422360 -3.678840 -2.192480 -6.469440 -0.000000 -171.019000 8.081460 -23.029900 39.081100 -0.000007 -0.000012 0.009539 -0.028378 18.579600 40.985400 -0.000006 -0.000013 -7.685980 -1.876860 -67.382700 11.754300 -0.000000 0.000003 0.002467 0.091471 -12.867300 -2.192510 6.469440 -0.000001 -174.016000 -15.178700 -175.535000 -39.081100 -0.002282 -0.040193 -0.013570 0.046450 19.983800 -40.985400 0.000008 0.000006 9.832150 8.281870 -67.852000 -11.754300 -0.000006 -0.000006 0.002283 0.059760 -14.149300
0.000000 0.000000 0.000000 0.000000 0.000000 -0.000000 174.020000 91.462400 204.122000 96.978000 -50.663200 0.999608 15.735700 0.000005 -0.000001 126.062000 87.638200 -127.177000 8.984550 -0.406207 -0.000000 -3.920880 2.892470 -2.132610 16.377300 -0.000001 -0.000001 4.017070 -5.683710 -2.568090 6.456720 -0.000001 -0.000000 6.739510 -11.909700 -3.112160 12.994200 -0.242716 4.980390 -92.320000 5.750250 -67.983300 5.348090 -0.000007 -0.000001 -66.621900 -10.397500 20.651100 24.328600 0.000019 0.000005 6.508830 32.817900 -11.887800 22.291600 -0.000001 0.000005 53.302100 4.545150 15.847200 12.994500 -0.242716 -4.980390 89.006700 2.971790 -71.509200 -5.348130 -0.000001 -0.000004 -73.482100 8.841740 -8.215290 -24.328900 0.000322 -0.000009 1.190620 1.404150 -40.328600 -22.291500 -0.000108 -0.000004 38.428300 5.424990 -3.767880 -2.192480 -6.469440 -0.000000 -170.797000 7.729640 -21.615100 39.081100 -0.000007 -0.000012 0.004715 -0.032821 8.175920 40.985400 -0.000006 -0.000013 -8.881530 2.619240 -68.016400 11.754300 -0.000000 0.000003 0.002424 0.097222 -12.634100 -2.192510 6.469440 -0.000001 -174.511000 -15.650800 -174.626000 -39.081100 -0.002282 -0.040193 -0.014017 0.045989 20.655700 -40.985400 0.000008 0.000006 10.191200 9.611210 -67.601700 -11.754300 -0.000006 -0.000006 -0.000103 -0.001708 -16.643200
0.000000 0.000000 0.000000 0.000000 0.000000 -0.000000 171.967000 90.931600 207.557000 97.063400 -52.787100 0.537691 15.735700 0.000005 -0.000001 132.357000 87.742900 -133.414000 8.984550 -0.406207 -0.000000 -4.403730 3.151130 -1.993840 16.377300 -0.000001 -0.000001 2.631070 -5.557280 -2.278580 6.456720 -0.000001 -0.000000 6.032100 -11.628200 -2.155710 12.994200 -0.242716 4.980390 -92.270000 5.621450 -67.968300 5.348090 -0.000007 -0.000001 -64.997300 -12.114000 22.777000 24.328600 0.000019 0.000005 6.625380 32.838400 -12.089800 22.291600 -0.000001 0.000005 53.302100 4.549930 15.766800 12.994500 -0.242716 -4.980390 88.960700 3.169280 -71.832900 -5.348130 -0.000001 -0.000004 -73.471600 7.883930 -6.807400 -24.328900 0.000322 -0.000009 1.617700 1.862160 -41.013900 -22.291500 -0.000108 -0.000004 38.473000 5.425530 -3.786290 -2.192480 -6.469440 -0.000000 -172.589000 4.392810 -22.151200 39.081100 -0.000007 -0.000012 -0.003977 0.044923 5.058450 40.985400 -0.000006 -0.000013 -13.068900 8.358890 -68.524300 11.754300 -0.000000 0.000003 0.002427 0.096864 -12.648700 -2.192510 6.469440 -0.000001 -175.267000 -15.739700 -173.842000 -39.081100 -0.002282 -0.040193 -0.018669 0.053390 22.382100 -40.985400 0.000008 0.000006 10.658600 10.653400 -67.030900 -11.754300 -0.000006 -0.000006 -0.008688 -0.093555 -20.383400
0.000000 0.000000 0.000000 0.000000 0.000000 -0.000000 169.610000 90.314800 211.139000 98.174100 -54.454700 0.664688 15.735700 0.000005 -0.000001 137.751000 88.018500 -138.972000 8.984550 -0.406207 -0.000000 -5.071420 3.067180 -2.309190 16.377300 -0.000001 -0.000001 1.469760 -5.508330 -1.869910 6.456720 -0.000001 -0.000000 5.366080 -11.279500 -1.120720 12.994200 -0.242716 4.980390 -92.396700 5.990880 -68.148300 5.348090 -0.000007 -0.000001 -63.269600 -13.049700 24.036000 24.328600 0.000019 0.000005 6.936510 33.460800 -12.442900 22.291600 -0.000001 0.000005 53.413100 4.541710 15.905100 12.994500 -0.242716 -4.980390 88.914900 3.386150 -72.220200 -5.348130 -0.000001 -0.000004 -73.270800 7.377460 -5.430400 -24.328900 0.000322 -0.000009 1.700390 2.033380 -39.936300 -22.291500 -0.000108 -0.000004 38.374300 5.423940 -3.732390 -2.192480 -6.469440 -0.000000 -173.667000 4.563800 -25.288900 39.081100 -0.000007 -0.000012 -0.032322 0.188343 9.737730 40.985400 -0.000006 -0.000013 -17.984000 12.692400 -64.029500 11.754300 -0.000000 0.000003 0.002486 0.081650 -13.265400 -2.192510 6.469440 -0.000001 -176.716000 -15.191500 -173.971000 -39.081100 -0.002282 -0.040193 -0.035141 0.081452 25.271400 -40.985400 0.000008 0.000006 11.443500 11.483800 -65.583500 -11.754300 -0.000006 -0.000006 -0.029755 -0.216338 -25.435300
0.000000 0.000000 0.000000 0.000000 0.000000 -0.000000 166.960000 89.756700 214.848000 100.937000 -55.649700 2.160900 15.735700 0.000005 -0.000001 142.634000 88.461100 -144.382000 8.984550 -0.406207 -0.000000 -5.858700 2.650250 -3.364280 16.377300 -0.000001 -0.000001 0.655996 -5.490520 -1.354590 6.456720 -0.000001 -0.000000 4.935740 -10.856000 0.141393 12.994200 -0.242716 4.980390 -92.594400 6.636130 -68.590100 5.348090 -0.000007 -0.000001 -61.828100 -12.959100 24.052500 24.328600 0.000019 0.000005 6.672790 33.642400 -11.924000 22.291600 -0.000001 0.000005 53.590700 4.533510 16.042500 12.994500 -0.242716 -4.980390 88.689500 4.134590 -72.396300 -5.348130 -0.000001 -0.000004 -72.578200 7.326930 -4.094890 -24.328900 0.000322 -0.000009 1.529770 2.035020 -36.965900 -22.291500 -0.000108 -0.000004 38.200200 5.437170 -4.187330 -2.192480 -6.469440 -0.000000 -176.274000 7.484470 -31.245000 39.081100 -0.000007 -0.000012 0.004284 -0.009915 23.365500 40.985400 -0.000006 -0.000013 -8.668680 10.885200 -64.169300 11.754300 -0.000000 0.000003 0.002455 0.093382 -12.789800 -2.192510 6.469440 -0.000001 -179.237000 -13.591000 -175.424000 -39.081100 -0.002282 -0.040193 -0.070891 0.128510 29.999100 -40.985400 0.000008 0.000006 11.990100 12.462400 -62.106300 -11.754300 -0.000006 -0.000006 -0.073441 -0.373182 -32.039500
0.000000 0.000000 0.000000 0.000000 0.000000 -0.000000 163.854000 89.367200 218.383000 103.936000 -56.486500 5.753490 15.735700 0.000005 -0.000001 126.441000 88.535500 -128.861000 8.984550 -0.406207 -0.000000 -5.364260 2.014830 -4.750960 16.377300 -0.000001 -0.000001 -0.271303 -5.562710 -1.101400 6.456720 -0.000001 -0.000000 5.160680 -10.413900 2.169840 12.994200 -0.242716 4.980390 -92.694800 7.102800 -69.160900 5.348090 -0.000007 -0.000001 -60.980600 -12.425100 22.147200 24.328600 0.000019 0.000005 5.888070 33.021900 -10.716000 22.291600 -0.000001 0.000005 53.765500 4.517060 16.316800 12.994500 -0.242716 -4.980390 88.521300 4.728370 -72.612500 -5.348130 -0.000001 -0.000004 -72.997200 6.674800 -2.472660 -24.328900 0.000322 -0.000009 1.760800 2.804310 -32.157500 -22.291500 -0.000108 -0.000004 37.549800 5.448250 -4.577030 -2.192480 -6.469440 -0.000000 -178.741000 9.433210 -30.687700 39.081100 -0.000007 -0.000012 0.119407 -0.212544 29.327100 40.985400 -0.000006 -0.000013 -6.485960 8.573770 -64.680000 11.754300 -0.000000 0.000003 0.002070 0.118149 -11.785600 -2.192510 6.469440 -0.000001 178.894000 -11.799700 -176.857000 -39.081100 -0.002282 -0.040193 -0.119132 0.163368 36.845800 -40.985400 0.000008 0.000006 10.610300 12.879800 -54.434800 -11.754300 -0.000006 -0.000006 -0.105079 -0.456984 -35.671600
0.000000 0.000000 0.000000 0.000000 0.000000 -0.000000 160.775000 89.197900 221.457000 105.801000 -58.394000 8.891040 15.735700 0.000005 -0.000001 114.495000 88.096800 -117.324000 8.984550 -0.406207 -0.000000 -4.250850 1.873370 -5.591690 16.377300 -0.000001 -0.000001 -1.364480 -5.483810 -1.250740 6.456720 -0.000001 -0.000000 5.080420 -9.834270 4.295040 12.994200 -0.242716 4.980390 -92.503900 6.884930 -69.958400 5.348090 -0.000007 -0.000001 -61.516500 -12.840300 18.711100 24.328600 0.000019 0.000005 5.879990 32.945700 -10.723000 22.291600 -0.000001 0.000005 54.839800 4.476400 16.988300 12.994500 -0.242716 -4.980390 88.576600 4.569040 -72.676000 -5.348130 -0.000001 -0.000004 -74.187700 7.894460 -1.505540 -24.328900 0.000322 -0.000009 0.510683 1.068440 -25.570000 -22.291500 -0.000108 -0.000004 36.190600 5.449240 -4.612690 -2.192480 -6.469440 -0.000000 179.211000 8.429890 -28.033300 39.081100 -0.000007 -0.000012 0.199182 -0.310460 32.683100 40.985400 -0.000006 -0.000013 -4.670930 8.149860 -65.856800 11.754300 -0.000000 0.000003 0.001110 0.146193 -10.648000 -2.192510 6.469440 -0.000001 177.287000 -10.382700 179.093000 -39.081100 -0.002282 -0.040193 -0.099154 0.097707 46.347400 -40.985400 0.000008 0.000006 2.914880 11.365300 -43.922600 -11.754300 -0.000006 -0.000006 -0.037613 -0.250450 -26.854500
0.000000 0.000000 0.000000 0.000000 0.000000 -0.000000 157.819000 89.227400 224.095000 107.630000 -62.107200 12.170100 15.735700 0.000005 -0.000001 106.573000 87.745900 -109.467000 8.984550 -0.406207 -0.000000 -3.399480 1.567010 -5.742120 16.377300 -0.000001 -0.000001 -1.935090 -4.287130 -1.614870 6.456720 -0.000001 -0.000000 4.790070 -8.163140 5.627620 12.994200 -0.242716 4.980390 -92.586000 7.155120 -70.069200 5.348090 -0.000007 -0.000001 -62.037800 -12.561000 16.131900 24.328600 0.000019 0.000005 7.236890 31.787700 -13.553100 22.291600 -0.000001 0.000005 55.180500 4.474300 17.022800 12.994500 -0.242716 -4.980390 88.552400 4.760040 -73.062600 -5.348130 -0.000001 -0.000004 -74.593800 10.743000 -1.478290 -24.328900 0.000322 -0.000009 -0.003495 -0.006833 -17.718600 -22.291500 -0.000108 -0.000004 34.495200 5.449910 -4.634920 -2.192480 -6.469440 -0.000000 177.855000 5.115630 -24.315600 39.081100 -0.000007 -0.000012 0.283725 -0.412704 34.508000 40.985400 -0.000006 -0.000013 -3.296550 7.682390 -68.847400 11.754300 -0.000000 0.000003 -0.000411 0.174280 -9.507730 -2.192510 6.469440 -0.000001 175.719000 -10.599000 173.063000 -39.081100 -0.002282 -0.040193 0.128526 -0.084385 56.041900 -40.985400 0.000008 0.000006 -8.727280 3.117710 -33.497300 -11.754300 -0.000006 -0.000006 0.000114 0.165734 -9.851320
